<svg width="16" height="15" viewBox="0 0 16 15" fill="none" xmlns="http://www.w3.org/2000/svg">
<path d="M8.02917 1.24512C7.1698 1.24512 6.35925 1.41113 5.59753 1.74316C4.83582 2.06543 4.17175 2.50977 3.60535 3.07617C3.03894 3.64258 2.5946 4.30664 2.27234 5.06836C1.94031 5.83008 1.77429 6.64062 1.77429 7.5C1.77429 8.35938 1.94031 9.16992 2.27234 9.93164C2.5946 10.6934 3.03894 11.3574 3.60535 11.9238C4.17175 12.4902 4.83582 12.9346 5.59753 13.2568C6.35925 13.5889 7.1698 13.7549 8.02917 13.7549C8.88855 13.7549 9.6991 13.5889 10.4608 13.2568C11.2225 12.9346 11.8866 12.4902 12.453 11.9238C13.0194 11.3574 13.4637 10.6934 13.786 9.93164C14.118 9.16992 14.2841 8.35938 14.2841 7.5C14.2841 6.64062 14.118 5.83008 13.786 5.06836C13.4637 4.30664 13.0194 3.64258 12.453 3.07617C11.8866 2.50977 11.2225 2.06543 10.4608 1.74316C9.6991 1.41113 8.88855 1.24512 8.02917 1.24512ZM8.02917 12.4951C7.33582 12.4951 6.6864 12.3633 6.08093 12.0996C5.47546 11.8457 4.94568 11.4917 4.49158 11.0376C4.03748 10.5835 3.68347 10.0537 3.42957 9.44824C3.16589 8.84277 3.03406 8.19336 3.03406 7.5C3.03406 6.80664 3.16589 6.15723 3.42957 5.55176C3.68347 4.94629 4.03748 4.4165 4.49158 3.9624C4.94568 3.5083 5.47546 3.1543 6.08093 2.90039C6.6864 2.63672 7.33582 2.50488 8.02917 2.50488C8.72253 2.50488 9.37195 2.63672 9.97742 2.90039C10.5829 3.1543 11.1127 3.5083 11.5668 3.9624C12.0209 4.4165 12.3749 4.94629 12.6288 5.55176C12.8925 6.15723 13.0243 6.80664 13.0243 7.5C13.0243 8.19336 12.8925 8.84277 12.6288 9.44824C12.3749 10.0537 12.0209 10.5835 11.5668 11.0376C11.1127 11.4917 10.5829 11.8457 9.97742 12.0996C9.37195 12.3633 8.72253 12.4951 8.02917 12.4951ZM8.02917 6.87012C7.40417 6.87012 7.04041 6.79688 6.93787 6.65039C6.83533 6.50391 6.78406 6.37207 6.78406 6.25488C6.78406 6.09863 6.88904 5.95459 7.099 5.82275C7.30896 5.69092 7.61902 5.625 8.02917 5.625C8.40027 5.625 8.63708 5.70068 8.73962 5.85205C8.84216 6.00342 8.89832 6.1377 8.90808 6.25488H9.52332H10.1532C10.1532 5.93262 10.0385 5.5835 9.80896 5.20752C9.57947 4.83154 9.19617 4.58008 8.65906 4.45312V3.76465H7.39929V4.42383C6.78406 4.53125 6.31775 4.76074 6.00037 5.1123C5.68298 5.46387 5.52429 5.84473 5.52429 6.25488C5.52429 6.60645 5.67078 7.00684 5.96375 7.45605C6.25671 7.90527 6.94519 8.12988 8.02917 8.12988C8.65417 8.12988 9.01794 8.20801 9.12048 8.36426C9.22302 8.52051 9.27429 8.64746 9.27429 8.74512C9.27429 8.88184 9.17419 9.021 8.974 9.1626C8.7738 9.3042 8.45886 9.375 8.02917 9.375C7.453 9.375 7.10144 9.28223 6.97449 9.09668C6.84753 8.91113 6.78406 8.79395 6.78406 8.74512H5.52429C5.52429 9.03809 5.65369 9.38721 5.91248 9.79248C6.17126 10.1978 6.66687 10.459 7.39929 10.5762V11.25H8.65906V10.5762C9.27429 10.4688 9.7406 10.2393 10.058 9.8877C10.3754 9.53613 10.5341 9.15527 10.5341 8.74512C10.5341 8.39355 10.3876 7.99316 10.0946 7.54395C9.80164 7.09473 9.11316 6.87012 8.02917 6.87012Z" fill="#B31E8D"/>
</svg>
