<svg width="18" height="14" viewBox="0 0 18 14" fill="none" xmlns="http://www.w3.org/2000/svg">
<g clip-path="url(#clip0_2002_396)">
<path d="M1.34644 2.61651C1.34644 2.04762 1.54199 1.56762 1.9331 1.17651C2.32421 0.785399 2.80421 0.589843 3.3731 0.589843H15.3731C15.9064 0.589843 16.3687 0.785399 16.7598 1.17651C17.1509 1.56762 17.3464 2.04762 17.3464 2.61651V10.6165C17.3464 11.1854 17.1509 11.6565 16.7598 12.0298C16.3687 12.4032 15.8887 12.5898 15.3198 12.5898H3.3731C2.80421 12.5898 2.32421 12.4032 1.9331 12.0298C1.54199 11.6565 1.34644 11.1854 1.34644 10.6165V2.61651ZM3.3731 1.60318C3.08866 1.60318 2.84866 1.70095 2.6531 1.89651C2.45755 2.09207 2.35977 2.33207 2.35977 2.61651V2.82984L9.34644 7.04318L16.3331 2.82984V2.61651C16.3331 2.33207 16.2353 2.09207 16.0398 1.89651C15.8442 1.70095 15.622 1.60318 15.3731 1.60318H3.3731ZM16.3331 4.00318L11.6398 6.82984L16.3331 9.70984V4.00318ZM16.3331 10.8832L10.6798 7.41651L9.34644 8.21651L8.0131 7.41651L2.35977 10.8832C2.43088 11.0965 2.55532 11.2743 2.7331 11.4165C2.91088 11.5587 3.12421 11.6298 3.3731 11.6298H15.3731C15.5864 11.6298 15.782 11.5587 15.9598 11.4165C16.1375 11.2743 16.262 11.0965 16.3331 10.8832ZM2.35977 9.70984L7.0531 6.82984L2.35977 4.00318V9.70984Z" fill="white"/>
</g>
<defs>
<clipPath id="clip0_2002_396">
<rect width="17" height="13" fill="white" transform="matrix(1 0 0 -1 0.673218 13.144)"/>
</clipPath>
</defs>
</svg>
