<svg width="17" height="17" viewBox="0 0 17 17" fill="none" xmlns="http://www.w3.org/2000/svg">
<g clip-path="url(#clip0_2019_2481)">
<path d="M16.5292 8.5C16.5292 8.5 13.5292 3 8.52917 3C3.52917 3 0.529175 8.5 0.529175 8.5C0.529175 8.5 3.52917 14 8.52917 14C13.5292 14 16.5292 8.5 16.5292 8.5ZM1.70217 8.5C2.18496 7.76459 2.74114 7.08008 3.36217 6.457C4.64917 5.168 6.40917 4 8.52917 4C10.6492 4 12.4082 5.168 13.6972 6.457C14.3182 7.08008 14.8744 7.76459 15.3572 8.5C15.2998 8.58667 15.2348 8.68267 15.1622 8.788C14.8272 9.268 14.3322 9.908 13.6972 10.543C12.4082 11.832 10.6482 13 8.52917 13C6.41017 13 4.65018 11.832 3.36117 10.543C2.74014 9.91992 2.18496 9.23541 1.70217 8.5Z" fill="#B31E8D"/>
<path d="M8.52917 6C7.86613 6 7.23025 6.26339 6.76141 6.73223C6.29257 7.20107 6.02917 7.83696 6.02917 8.5C6.02917 9.16304 6.29257 9.79893 6.76141 10.2678C7.23025 10.7366 7.86613 11 8.52917 11C9.19222 11 9.8281 10.7366 10.2969 10.2678C10.7658 9.79893 11.0292 9.16304 11.0292 8.5C11.0292 7.83696 10.7658 7.20107 10.2969 6.73223C9.8281 6.26339 9.19222 6 8.52917 6ZM5.02917 8.5C5.02917 7.57174 5.39792 6.6815 6.0543 6.02513C6.71068 5.36875 7.60092 5 8.52917 5C9.45743 5 10.3477 5.36875 11.004 6.02513C11.6604 6.6815 12.0292 7.57174 12.0292 8.5C12.0292 9.42826 11.6604 10.3185 11.004 10.9749C10.3477 11.6313 9.45743 12 8.52917 12C7.60092 12 6.71068 11.6313 6.0543 10.9749C5.39792 10.3185 5.02917 9.42826 5.02917 8.5Z" fill="#B31E8D"/>
</g>
<defs>
<clipPath id="clip0_2019_2481">
<rect width="16" height="16" fill="white" transform="translate(0.529175 0.5)"/>
</clipPath>
</defs>
</svg>
