<svg width="22" height="21" viewBox="0 0 22 21" fill="none" xmlns="http://www.w3.org/2000/svg">
<g clip-path="url(#clip0_2002_418)">
<path d="M21.3735 10.5583C21.3735 8.69776 20.9197 6.98472 20.0121 5.41917C19.1046 3.85362 17.868 2.60572 16.3025 1.67546C14.7369 0.745209 13.0239 0.280081 11.1634 0.280081C9.30285 0.280081 7.58982 0.745209 6.02427 1.67546C4.45872 2.60572 3.22216 3.85362 2.3146 5.41917C1.40703 6.98472 0.953247 8.69776 0.953247 10.5583C0.953247 12.2373 1.32762 13.8028 2.07636 15.2549C2.8251 16.707 3.85746 17.9096 5.17343 18.8625C6.4894 19.8154 7.96419 20.428 9.59781 20.7003V13.5532H6.94318V10.5583H9.59781V8.31204C9.59781 7.04145 9.93815 6.05447 10.6188 5.35111C11.2995 4.64774 12.2298 4.29606 13.4096 4.29606C13.8634 4.29606 14.3852 4.31875 14.9751 4.36413L15.7239 4.50026V7.01876H14.4306C13.8407 7.01876 13.4096 7.16624 13.1373 7.4612C12.8651 7.75616 12.7289 8.15322 12.7289 8.65238V10.5583H15.5877L15.1113 13.5532H12.7289V20.7003C14.3625 20.428 15.8373 19.8154 17.1533 18.8625C18.4693 17.9096 19.5016 16.707 20.2504 15.2549C20.9991 13.8028 21.3735 12.2373 21.3735 10.5583Z" fill="white"/>
</g>
<defs>
<clipPath id="clip0_2002_418">
<rect width="20.4202" height="20.4202" fill="white" transform="matrix(1 0 0 -1 0.953247 20.7003)"/>
</clipPath>
</defs>
</svg>
