<svg width="21" height="20" viewBox="0 0 21 20" fill="none" xmlns="http://www.w3.org/2000/svg">
<g clip-path="url(#clip0_1965_815)">
<path d="M16.1867 11.175C15.5317 12.5025 14.6442 13.825 13.7367 15.0125C12.8749 16.1313 11.9545 17.2036 10.9792 18.225C10.004 17.2036 9.08356 16.1313 8.22175 15.0125C7.31425 13.825 6.42675 12.5025 5.77175 11.175C5.10925 9.83375 4.72925 8.5775 4.72925 7.5C4.72925 5.8424 5.38773 4.25269 6.55983 3.08058C7.73193 1.90848 9.32164 1.25 10.9792 1.25C12.6369 1.25 14.2266 1.90848 15.3987 3.08058C16.5708 4.25269 17.2292 5.8424 17.2292 7.5C17.2292 8.5775 16.848 9.83375 16.1867 11.175ZM10.9792 20C10.9792 20 18.4792 12.8925 18.4792 7.5C18.4792 5.51088 17.6891 3.60322 16.2825 2.1967C14.876 0.790176 12.9684 0 10.9792 0C8.99012 0 7.08247 0.790176 5.67595 2.1967C4.26942 3.60322 3.47925 5.51088 3.47925 7.5C3.47925 12.8925 10.9792 20 10.9792 20Z" fill="#B4BAC5"/>
<path d="M10.9792 10C10.3162 10 9.68032 9.73661 9.21148 9.26777C8.74264 8.79893 8.47925 8.16304 8.47925 7.5C8.47925 6.83696 8.74264 6.20107 9.21148 5.73223C9.68032 5.26339 10.3162 5 10.9792 5C11.6423 5 12.2782 5.26339 12.747 5.73223C13.2159 6.20107 13.4792 6.83696 13.4792 7.5C13.4792 8.16304 13.2159 8.79893 12.747 9.26777C12.2782 9.73661 11.6423 10 10.9792 10ZM10.9792 11.25C11.9738 11.25 12.9276 10.8549 13.6309 10.1517C14.3342 9.44839 14.7292 8.49456 14.7292 7.5C14.7292 6.50544 14.3342 5.55161 13.6309 4.84835C12.9276 4.14509 11.9738 3.75 10.9792 3.75C9.98469 3.75 9.03086 4.14509 8.3276 4.84835C7.62434 5.55161 7.22925 6.50544 7.22925 7.5C7.22925 8.49456 7.62434 9.44839 8.3276 10.1517C9.03086 10.8549 9.98469 11.25 10.9792 11.25Z" fill="#B4BAC5"/>
</g>
<defs>
<clipPath id="clip0_1965_815">
<rect width="20" height="20" fill="white" transform="translate(0.979248)"/>
</clipPath>
</defs>
</svg>
