<svg width="21" height="21" viewBox="0 0 21 21" fill="none" xmlns="http://www.w3.org/2000/svg">
<g clip-path="url(#clip0_2002_422)">
<path d="M10.3894 0.280081C8.48355 0.280081 7.06548 0.302771 6.13522 0.348148C5.20497 0.393526 4.3995 0.552351 3.71883 0.824621C3.03815 1.09689 2.43689 1.49395 1.91504 2.0158C1.39319 2.53765 0.996131 3.13891 0.723861 3.81959C0.451591 4.50026 0.292767 5.30573 0.247389 6.23598C0.20201 7.16624 0.179321 8.58431 0.179321 10.4902C0.179321 12.3961 0.20201 13.8142 0.247389 14.7444C0.292767 15.6747 0.451591 16.4801 0.723861 17.1608C0.996131 17.8415 1.39319 18.4427 1.91504 18.9646C2.43689 19.4864 3.03815 19.8835 3.71883 20.1558C4.3995 20.428 5.20497 20.5869 6.13522 20.6322C7.06548 20.6776 8.48355 20.7003 10.3894 20.7003C12.2953 20.7003 13.7134 20.6776 14.6437 20.6322C15.5739 20.5869 16.3794 20.428 17.06 20.1558C17.7407 19.8835 18.342 19.4864 18.8638 18.9646C19.3857 18.4427 19.7827 17.8415 20.055 17.1608C20.3273 16.4801 20.4861 15.6747 20.5315 14.7444C20.5769 13.8142 20.5996 12.3961 20.5996 10.4902C20.5996 8.58431 20.5769 7.16624 20.5315 6.23598C20.4861 5.30573 20.3273 4.50026 20.055 3.81959C19.7827 3.13891 19.3857 2.53765 18.8638 2.0158C18.342 1.49395 17.7407 1.09689 17.06 0.824621C16.3794 0.552351 15.5739 0.393526 14.6437 0.348148C13.7134 0.302771 12.2953 0.280081 10.3894 0.280081ZM9.50456 2.1179H10.3894C12.2953 2.1179 13.6794 2.14059 14.5416 2.18597C15.2676 2.23135 15.8689 2.34479 16.3453 2.52631C16.8218 2.70782 17.2302 2.96875 17.5706 3.30908C17.9109 3.64942 18.1718 4.05783 18.3533 4.5343C18.5348 5.01077 18.6483 5.61203 18.6937 6.33808C18.739 7.20027 18.7617 8.58431 18.7617 10.4902C18.7617 12.3961 18.739 13.7801 18.6937 14.6423C18.6483 15.3684 18.5348 15.9696 18.3533 16.4461C18.1718 16.9226 17.9109 17.331 17.5706 17.6713C17.2302 18.0117 16.8218 18.2726 16.3453 18.4541C15.8689 18.6356 15.2676 18.7491 14.5416 18.7944C13.634 18.8398 12.2499 18.8625 10.3894 18.8625C8.52893 18.8625 7.14489 18.8398 6.23732 18.7944C5.51127 18.7491 4.91001 18.6356 4.43354 18.4541C3.95706 18.2726 3.54866 18.0117 3.20832 17.6713C2.86799 17.331 2.60706 16.9226 2.42555 16.4461C2.24403 15.9696 2.13059 15.3684 2.08521 14.6423C2.03983 13.7347 2.01714 12.3394 2.01714 10.4562C2.01714 8.57297 2.03983 7.20027 2.08521 6.33808C2.13059 5.61203 2.24403 5.01077 2.42555 4.5343C2.60706 4.05783 2.86799 3.64942 3.20832 3.30908C3.54866 2.96875 3.95706 2.70782 4.43354 2.52631C4.91001 2.34479 5.53396 2.23135 6.30539 2.18597C7.07682 2.14059 8.14321 2.1179 9.50456 2.1179ZM15.8348 3.81959C15.5172 3.81959 15.2336 3.93303 14.984 4.15993C14.7344 4.38682 14.6096 4.67043 14.6096 5.01077C14.6096 5.35111 14.7344 5.64607 14.984 5.89565C15.2336 6.14523 15.5285 6.27002 15.8689 6.27002C16.2092 6.27002 16.4928 6.14523 16.7197 5.89565C16.9466 5.64607 17.06 5.35111 17.06 5.01077C17.06 4.67043 16.9466 4.38682 16.7197 4.15993C16.4928 3.93303 16.1979 3.81959 15.8348 3.81959ZM10.3894 5.24901C9.43649 5.24901 8.55162 5.4759 7.73481 5.92968C6.918 6.38346 6.27136 7.01876 5.79489 7.83557C5.31841 8.65238 5.08018 9.53726 5.08018 10.4902C5.08018 11.4431 5.31841 12.328 5.79489 13.1448C6.27136 13.9616 6.918 14.5969 7.73481 15.0507C8.55162 15.5045 9.43649 15.7314 10.3894 15.7314C11.3424 15.7314 12.2159 15.4932 13.01 15.0167C13.8042 14.5402 14.4281 13.9049 14.8819 13.1108C15.3357 12.3167 15.5626 11.4431 15.5626 10.4902C15.5626 9.53726 15.3357 8.66372 14.8819 7.8696C14.4281 7.07548 13.8042 6.44019 13.01 5.96371C12.2159 5.48724 11.3424 5.24901 10.3894 5.24901ZM10.3894 7.08683C10.9794 7.08683 11.5466 7.23431 12.0911 7.52927C12.6357 7.82422 13.0554 8.24397 13.3504 8.78851C13.6453 9.33305 13.7928 9.90028 13.7928 10.4902C13.7928 11.0801 13.6453 11.6473 13.3504 12.1919C13.0554 12.7364 12.6357 13.1562 12.0911 13.4511C11.5466 13.7461 10.9794 13.8936 10.3894 13.8936C9.43649 13.8936 8.63103 13.5646 7.97304 12.9066C7.31506 12.2486 6.98607 11.4431 6.98607 10.4902C6.98607 9.53726 7.31506 8.73179 7.97304 8.0738C8.63103 7.41582 9.43649 7.08683 10.3894 7.08683Z" fill="white"/>
</g>
<defs>
<clipPath id="clip0_2002_422">
<rect width="20.4202" height="20.4202" fill="white" transform="matrix(1 0 0 -1 0.179321 20.7003)"/>
</clipPath>
</defs>
</svg>
