<svg width="16" height="16" viewBox="0 0 16 16" fill="none" xmlns="http://www.w3.org/2000/svg">
<path d="M8.02917 9.24512C8.72253 9.24512 9.31335 9.00098 9.80163 8.5127C10.2899 8.02441 10.5341 7.43848 10.5341 6.75488C10.5341 6.06152 10.2899 5.4707 9.80163 4.98242C9.31335 4.49414 8.72253 4.25 8.02917 4.25C7.33581 4.25 6.74499 4.49414 6.25671 4.98242C5.76843 5.4707 5.52429 6.06152 5.52429 6.75488C5.52429 7.43848 5.76843 8.02441 6.25671 8.5127C6.74499 9.00098 7.33581 9.24512 8.02917 9.24512ZM8.02917 5.49512C8.37097 5.49512 8.66393 5.61719 8.90807 5.86133C9.15222 6.10547 9.27429 6.40332 9.27429 6.75488C9.27429 7.09668 9.15222 7.38965 8.90807 7.63379C8.66393 7.87793 8.37097 8 8.02917 8C7.68737 8 7.3944 7.87793 7.15026 7.63379C6.90612 7.38965 6.78405 7.09668 6.78405 6.75488C6.78405 6.40332 6.90612 6.10547 7.15026 5.86133C7.3944 5.61719 7.68737 5.49512 8.02917 5.49512ZM7.66296 14.1377C7.72155 14.1768 7.78259 14.2061 7.84606 14.2256C7.90954 14.2451 7.97057 14.2549 8.02917 14.2549C8.08776 14.2549 8.1488 14.2451 8.21227 14.2256C8.27575 14.2061 8.33679 14.1768 8.39538 14.1377C8.44421 14.0986 8.71276 13.8838 9.20104 13.4932C9.68932 13.0928 10.2191 12.5605 10.7904 11.8965C11.3617 11.2324 11.8768 10.4609 12.3358 9.58203C12.8046 8.70312 13.0341 7.76074 13.0243 6.75488C13.0243 6.06152 12.8924 5.41211 12.6288 4.80664C12.3749 4.20117 12.0209 3.67139 11.5668 3.21729C11.1127 2.76318 10.5829 2.4043 9.97741 2.14062C9.37194 1.87695 8.72253 1.74512 8.02917 1.74512C7.33581 1.74512 6.68639 1.87695 6.08093 2.14062C5.47546 2.4043 4.94567 2.76318 4.49157 3.21729C4.03747 3.67139 3.68347 4.20117 3.42956 4.80664C3.16589 5.41211 3.03405 6.05664 3.03405 6.74023C3.02429 7.75586 3.25378 8.70312 3.72253 9.58203C4.18151 10.4609 4.69665 11.2324 5.26794 11.8965C5.83923 12.5605 6.36901 13.0928 6.85729 13.4932C7.34557 13.8838 7.61413 14.0986 7.66296 14.1377ZM8.02917 3.00488C8.54675 3.00488 9.03503 3.10254 9.49401 3.29785C9.94323 3.49316 10.3387 3.76172 10.6805 4.10352C11.0223 4.44531 11.2909 4.84082 11.4862 5.29004C11.6815 5.74902 11.7792 6.2373 11.7792 6.75488C11.7792 7.44824 11.6327 8.11719 11.3397 8.76172C11.0467 9.40625 10.6952 9.99463 10.285 10.5269C9.87487 11.0591 9.45983 11.5254 9.03991 11.9258C8.61999 12.3262 8.28307 12.6289 8.02917 12.834C7.77526 12.6289 7.43835 12.3262 7.01843 11.9258C6.5985 11.5254 6.18347 11.0591 5.77331 10.5269C5.36315 9.99463 5.01159 9.40625 4.71862 8.76172C4.42565 8.11719 4.27917 7.44824 4.27917 6.75488C4.27917 6.2373 4.37682 5.74902 4.57214 5.29004C4.76745 4.83105 5.036 4.43311 5.3778 4.09619C5.7196 3.75928 6.11511 3.49316 6.56432 3.29785C7.02331 3.10254 7.51159 3.00488 8.02917 3.00488Z" fill="#B31E8D"/>
</svg>
