<svg width="17" height="17" viewBox="0 0 17 17" fill="none" xmlns="http://www.w3.org/2000/svg">
<g clip-path="url(#clip0_2002_391)">
<path d="M12.8333 9.10404C12.3711 10.0285 11.7133 11.0418 10.8599 12.144C10.1844 13.0329 9.4555 13.8863 8.67327 14.704C7.89105 13.8863 7.16216 13.0329 6.48661 12.144C5.63327 11.0418 4.9755 10.0285 4.51327 9.10404C3.94438 7.96626 3.65994 6.96182 3.65994 6.09071C3.65994 5.2196 3.88216 4.40182 4.32661 3.63738C4.77105 2.87293 5.38438 2.26849 6.16661 1.82404C6.94883 1.3796 7.78438 1.15738 8.67327 1.15738C9.56216 1.15738 10.3977 1.3796 11.1799 1.82404C11.9622 2.26849 12.5755 2.87293 13.0199 3.63738C13.4644 4.40182 13.6866 5.2196 13.6866 6.09071C13.6866 6.96182 13.4022 7.96626 12.8333 9.10404ZM8.67327 16.144C8.99327 15.824 9.31327 15.504 9.63327 15.184C10.3799 14.4018 11.0555 13.6018 11.6599 12.784C12.5488 11.6107 13.2422 10.5263 13.7399 9.53071C14.3799 8.25071 14.6999 7.11293 14.6999 6.11738C14.6999 5.05071 14.4244 4.05515 13.8733 3.13071C13.3222 2.20626 12.5933 1.47738 11.6866 0.944043C10.7799 0.410709 9.7755 0.144043 8.67327 0.144043C7.57105 0.144043 6.56661 0.410709 5.65994 0.944043C4.75327 1.47738 4.02438 2.20626 3.47327 3.13071C2.92216 4.05515 2.64661 5.05071 2.64661 6.11738C2.64661 7.11293 2.96661 8.25071 3.60661 9.53071C4.10438 10.5263 4.79772 11.6107 5.68661 12.784C6.29105 13.6018 6.96661 14.4018 7.71327 15.184L8.67327 16.144ZM8.67327 8.14404C8.10438 8.14404 7.63327 7.94849 7.25994 7.55738C6.88661 7.16626 6.69994 6.69515 6.69994 6.14404C6.69994 5.59293 6.88661 5.12182 7.25994 4.73071C7.63327 4.3396 8.10438 4.14404 8.67327 4.14404C9.24216 4.14404 9.72216 4.3396 10.1133 4.73071C10.5044 5.12182 10.6999 5.59293 10.6999 6.14404C10.6999 6.69515 10.5044 7.16626 10.1133 7.55738C9.72216 7.94849 9.24216 8.14404 8.67327 8.14404ZM8.67327 9.15738C9.49105 9.15738 10.1933 8.86404 10.7799 8.27738C11.3666 7.69071 11.6599 6.9796 11.6599 6.14404C11.6599 5.30849 11.3666 4.59738 10.7799 4.01071C10.1933 3.42404 9.49105 3.13071 8.67327 3.13071C7.8555 3.13071 7.15327 3.42404 6.56661 4.01071C5.97994 4.59738 5.68661 5.30849 5.68661 6.14404C5.68661 6.9796 5.97994 7.69071 6.56661 8.27738C7.15327 8.86404 7.8555 9.15738 8.67327 9.15738Z" fill="white"/>
</g>
<defs>
<clipPath id="clip0_2002_391">
<rect width="16" height="16" fill="white" transform="matrix(1 0 0 -1 0.673218 16.144)"/>
</clipPath>
</defs>
</svg>
