<svg width="8" height="8" viewBox="0 0 8 8" fill="none" xmlns="http://www.w3.org/2000/svg">
<path fill-rule="evenodd" clip-rule="evenodd" d="M1.34161 5.92989C1.34161 5.86989 1.36545 5.81234 1.40788 5.76992C1.45031 5.72749 1.50785 5.70365 1.56786 5.70365H6.09274C6.15275 5.70365 6.2103 5.72749 6.25272 5.76992C6.29515 5.81234 6.31899 5.86989 6.31899 5.92989C6.31899 5.9899 6.29515 6.04744 6.25272 6.08987C6.2103 6.1323 6.15275 6.15614 6.09274 6.15614H1.56786C1.50785 6.15614 1.45031 6.1323 1.40788 6.08987C1.36545 6.04744 1.34161 5.9899 1.34161 5.92989ZM1.34161 4.11994C1.34161 4.05994 1.36545 4.00239 1.40788 3.95996C1.45031 3.91753 1.50785 3.89369 1.56786 3.89369H6.09274C6.15275 3.89369 6.2103 3.91753 6.25272 3.95996C6.29515 4.00239 6.31899 4.05994 6.31899 4.11994C6.31899 4.17994 6.29515 4.23749 6.25272 4.27992C6.2103 4.32235 6.15275 4.34618 6.09274 4.34618H1.56786C1.50785 4.34618 1.45031 4.32235 1.40788 4.27992C1.36545 4.23749 1.34161 4.17994 1.34161 4.11994ZM1.34161 2.30998C1.34161 2.24998 1.36545 2.19243 1.40788 2.15001C1.45031 2.10758 1.50785 2.08374 1.56786 2.08374H6.09274C6.15275 2.08374 6.2103 2.10758 6.25272 2.15001C6.29515 2.19243 6.31899 2.24998 6.31899 2.30998C6.31899 2.36999 6.29515 2.42753 6.25272 2.46996C6.2103 2.51239 6.15275 2.53623 6.09274 2.53623H1.56786C1.50785 2.53623 1.45031 2.51239 1.40788 2.46996C1.36545 2.42753 1.34161 2.36999 1.34161 2.30998Z" fill="#474646"/>
</svg>
