<svg width="18" height="18" viewBox="0 0 18 18" fill="none" xmlns="http://www.w3.org/2000/svg">
<g clip-path="url(#clip0_2002_402)">
<path d="M5.02495 2.05727C4.88274 1.87951 4.71387 1.79063 4.51833 1.79063C4.32279 1.79063 4.13613 1.86173 3.95837 2.00394L2.94512 3.0172C2.69625 3.26606 2.53627 3.55048 2.46516 3.87046C2.39405 4.19043 2.41183 4.49263 2.51849 4.77705C3.40731 7.30129 4.79386 9.50555 6.67815 11.3898C8.56244 13.2741 10.7667 14.6607 13.2909 15.5495C13.5754 15.6562 13.8776 15.6739 14.1975 15.6028C14.5175 15.5317 14.8019 15.3717 15.0508 15.1229L16.064 14.1096C16.2063 13.9319 16.2774 13.7452 16.2774 13.5497C16.2774 13.3541 16.1885 13.203 16.0107 13.0964L13.7176 11.2832C13.5398 11.141 13.3443 11.1054 13.131 11.1765L10.9445 11.7098C10.66 11.7809 10.3667 11.772 10.0645 11.6832C9.76234 11.5943 9.50459 11.4432 9.29127 11.2299L6.83814 8.77672C6.62482 8.56341 6.47372 8.30565 6.38484 8.00345C6.29596 7.70126 6.28707 7.40795 6.35818 7.12353L6.89147 4.93704C6.96257 4.72372 6.92702 4.52818 6.78481 4.35042L5.02495 2.05727ZM3.21177 1.25734C3.60285 0.86626 4.05614 0.688497 4.57165 0.724049C5.08717 0.759602 5.50491 0.990694 5.82489 1.41733L7.63807 3.71047C7.81583 3.92379 7.93138 4.16377 7.98471 4.43041C8.03804 4.69706 8.02915 4.95481 7.95804 5.20368L7.42475 7.39017C7.35365 7.63904 7.40698 7.85236 7.58474 8.03012L10.0379 10.4833C10.2156 10.661 10.429 10.7143 10.6778 10.6432L12.8643 10.1099C13.1132 10.0388 13.3709 10.03 13.6376 10.0833C13.9042 10.1366 14.1442 10.2522 14.3575 10.4299L16.6507 12.2431C17.0773 12.5631 17.3084 12.9808 17.3439 13.4963C17.3795 14.0119 17.2017 14.4651 16.8107 14.8562L15.7974 15.8695C15.4063 16.2606 14.953 16.5183 14.4375 16.6427C13.922 16.7672 13.4154 16.7405 12.9176 16.5628C10.2512 15.6384 7.9136 14.1718 5.90488 12.1631C3.89615 10.1544 2.42961 7.8168 1.50524 5.15035C1.32748 4.65262 1.30081 4.14599 1.42525 3.63048C1.54968 3.11496 1.80744 2.66167 2.19852 2.27059L3.21177 1.25734Z" fill="white"/>
</g>
<defs>
<clipPath id="clip0_2002_402">
<rect width="17" height="17" fill="white" transform="matrix(1 0 0 -1 0.673218 17.144)"/>
</clipPath>
</defs>
</svg>
