<svg width="21" height="20" viewBox="0 0 21 20" fill="none" xmlns="http://www.w3.org/2000/svg">
<g clip-path="url(#clip0_1965_808)">
<path d="M15.6567 12.93C16.8671 11.2784 17.4092 9.23062 17.1746 7.19644C16.94 5.16226 15.946 3.29168 14.3914 1.95892C12.8369 0.626155 10.8364 -0.070492 8.79026 0.00834944C6.74411 0.0871909 4.80319 0.935706 3.3558 2.38414C1.9084 3.83257 1.06127 5.7741 0.983897 7.8203C0.906519 9.86649 1.6046 11.8665 2.93847 13.4201C4.27234 14.9737 6.14364 15.9663 8.17798 16.1995C10.2123 16.4326 12.2597 15.8891 13.9105 14.6775H13.9092C13.9459 14.7275 13.9867 14.7754 14.0317 14.8213L18.8442 19.6338C19.0786 19.8683 19.3966 20.0001 19.7281 20.0003C20.0597 20.0004 20.3778 19.8688 20.6123 19.6344C20.8469 19.4 20.9787 19.082 20.9788 18.7504C20.979 18.4189 20.8473 18.1008 20.613 17.8663L15.8005 13.0538C15.7558 13.0085 15.7077 12.968 15.6567 12.93ZM15.9792 8.125C15.9792 9.02784 15.8014 9.92184 15.4559 10.756C15.1104 11.5901 14.604 12.348 13.9656 12.9864C13.3272 13.6248 12.5693 14.1312 11.7352 14.4767C10.901 14.8222 10.007 15 9.10421 15C8.20137 15 7.30738 14.8222 6.47326 14.4767C5.63915 14.1312 4.88125 13.6248 4.24285 12.9864C3.60445 12.348 3.09804 11.5901 2.75254 10.756C2.40704 9.92184 2.22921 9.02784 2.22921 8.125C2.22921 6.30164 2.95354 4.55296 4.24285 3.26364C5.53216 1.97433 7.28085 1.25 9.10421 1.25C10.9276 1.25 12.6763 1.97433 13.9656 3.26364C15.2549 4.55296 15.9792 6.30164 15.9792 8.125Z" fill="#B4BAC5"/>
</g>
<defs>
<clipPath id="clip0_1965_808">
<rect width="20" height="20" fill="white" transform="translate(0.979187)"/>
</clipPath>
</defs>
</svg>
