<svg width="8" height="8" viewBox="0 0 8 8" fill="none" xmlns="http://www.w3.org/2000/svg">
<path fill-rule="evenodd" clip-rule="evenodd" d="M1.44501 5.92183C1.44501 5.8621 1.45194 5.80481 1.46428 5.76257C1.47663 5.72032 1.49337 5.69659 1.51082 5.69659H2.82715C2.84461 5.69659 2.86135 5.72032 2.87369 5.76257C2.88604 5.80481 2.89297 5.8621 2.89297 5.92183C2.89297 5.98157 2.88604 6.03886 2.87369 6.0811C2.86135 6.12334 2.84461 6.14707 2.82715 6.14707H1.51082C1.49337 6.14707 1.47663 6.12334 1.46428 6.0811C1.45194 6.03886 1.44501 5.98157 1.44501 5.92183ZM1.44501 4.11992C1.44501 4.06019 1.45194 4.0029 1.46428 3.96066C1.47663 3.91841 1.49337 3.89468 1.51082 3.89468H2.82715C2.84461 3.89468 2.86135 3.91841 2.87369 3.96066C2.88604 4.0029 2.89297 4.06019 2.89297 4.11992C2.89297 4.17966 2.88604 4.23695 2.87369 4.27919C2.86135 4.32143 2.84461 4.34516 2.82715 4.34516H1.51082C1.49337 4.34516 1.47663 4.32143 1.46428 4.27919C1.45194 4.23695 1.44501 4.17966 1.44501 4.11992ZM1.44501 2.31801C1.44501 2.25828 1.45194 2.20098 1.46428 2.15874C1.47663 2.1165 1.49337 2.09277 1.51082 2.09277H2.82715C2.84461 2.09277 2.86135 2.1165 2.87369 2.15874C2.88604 2.20098 2.89297 2.25828 2.89297 2.31801C2.89297 2.37775 2.88604 2.43504 2.87369 2.47728C2.86135 2.51952 2.84461 2.54325 2.82715 2.54325H1.51082C1.49337 2.54325 1.47663 2.51952 1.46428 2.47728C1.45194 2.43504 1.44501 2.37775 1.44501 2.31801Z" fill="#474646"/>
<path fill-rule="evenodd" clip-rule="evenodd" d="M3.61694 5.24917C3.61694 5.1995 3.63252 5.15187 3.66025 5.11675C3.68797 5.08163 3.72557 5.0619 3.76478 5.0619H6.72161C6.76082 5.0619 6.79843 5.08163 6.82615 5.11675C6.85388 5.15187 6.86945 5.1995 6.86945 5.24917C6.86945 5.29883 6.85388 5.34646 6.82615 5.38158C6.79843 5.4167 6.76082 5.43643 6.72161 5.43643H3.76478C3.72557 5.43643 3.68797 5.4167 3.66025 5.38158C3.63252 5.34646 3.61694 5.29883 3.61694 5.24917ZM3.61694 3.75105C3.61694 3.70139 3.63252 3.65376 3.66025 3.61864C3.68797 3.58352 3.72557 3.56379 3.76478 3.56379H6.72161C6.76082 3.56379 6.79843 3.58352 6.82615 3.61864C6.85388 3.65376 6.86945 3.70139 6.86945 3.75105C6.86945 3.80072 6.85388 3.84835 6.82615 3.88347C6.79843 3.91859 6.76082 3.93832 6.72161 3.93832H3.76478C3.72557 3.93832 3.68797 3.91859 3.66025 3.88347C3.63252 3.84835 3.61694 3.80072 3.61694 3.75105ZM3.61694 2.25294C3.61694 2.20327 3.63252 2.15564 3.66025 2.12052C3.68797 2.0854 3.72557 2.06567 3.76478 2.06567H6.72161C6.76082 2.06567 6.79843 2.0854 6.82615 2.12052C6.85388 2.15564 6.86945 2.20327 6.86945 2.25294C6.86945 2.3026 6.85388 2.35024 6.82615 2.38535C6.79843 2.42047 6.76082 2.4402 6.72161 2.4402H3.76478C3.72557 2.4402 3.68797 2.42047 3.66025 2.38535C3.63252 2.35024 3.61694 2.3026 3.61694 2.25294Z" fill="#474646"/>
<path fill-rule="evenodd" clip-rule="evenodd" d="M3.64176 5.98676C3.64176 5.9371 3.65734 5.88947 3.68507 5.85435C3.71279 5.81923 3.7504 5.7995 3.78961 5.7995H6.74643C6.78564 5.7995 6.82325 5.81923 6.85097 5.85435C6.8787 5.88947 6.89427 5.9371 6.89427 5.98676C6.89427 6.03643 6.8787 6.08406 6.85097 6.11918C6.82325 6.1543 6.78564 6.17403 6.74643 6.17403H3.78961C3.7504 6.17403 3.71279 6.1543 3.68507 6.11918C3.65734 6.08406 3.64176 6.03643 3.64176 5.98676ZM3.64176 4.48865C3.64176 4.43899 3.65734 4.39135 3.68507 4.35623C3.71279 4.32112 3.7504 4.30139 3.78961 4.30139H6.74643C6.78564 4.30139 6.82325 4.32112 6.85097 4.35623C6.8787 4.39135 6.89427 4.43899 6.89427 4.48865C6.89427 4.53832 6.8787 4.58595 6.85097 4.62107C6.82325 4.65619 6.78564 4.67592 6.74643 4.67592H3.78961C3.7504 4.67592 3.71279 4.65619 3.68507 4.62107C3.65734 4.58595 3.64176 4.53832 3.64176 4.48865ZM3.64176 2.99054C3.64176 2.94087 3.65734 2.89324 3.68507 2.85812C3.71279 2.823 3.7504 2.80327 3.78961 2.80327H6.74643C6.78564 2.80327 6.82325 2.823 6.85097 2.85812C6.8787 2.89324 6.89427 2.94087 6.89427 2.99054C6.89427 3.0402 6.8787 3.08783 6.85097 3.12295C6.82325 3.15807 6.78564 3.1778 6.74643 3.1778H3.78961C3.7504 3.1778 3.71279 3.15807 3.68507 3.12295C3.65734 3.08783 3.64176 3.0402 3.64176 2.99054Z" fill="#474646"/>
</svg>
