<svg width="18" height="18" viewBox="0 0 18 18" fill="none" xmlns="http://www.w3.org/2000/svg">
<g clip-path="url(#clip0_2002_408)">
<path d="M1.34644 8.72144C1.34644 7.26366 1.70199 5.92144 2.4131 4.69477C3.12421 3.4681 4.0931 2.49921 5.31977 1.7881C6.54644 1.07699 7.88866 0.721435 9.34644 0.721435C10.8042 0.721435 12.1464 1.07699 13.3731 1.7881C14.5998 2.49921 15.5687 3.4681 16.2798 4.69477C16.9909 5.92144 17.3464 7.26366 17.3464 8.72144C17.3464 10.1792 16.9909 11.5214 16.2798 12.7481C15.5687 13.9748 14.5998 14.9437 13.3731 15.6548C12.1464 16.3659 10.8042 16.7214 9.34644 16.7214C7.88866 16.7214 6.54644 16.3659 5.31977 15.6548C4.0931 14.9437 3.12421 13.9748 2.4131 12.7481C1.70199 11.5214 1.34644 10.1792 1.34644 8.72144ZM8.86644 1.7881C8.15532 2.00144 7.51532 2.62366 6.94644 3.65477C6.76866 4.01032 6.60866 4.36588 6.46644 4.72144H8.86644V1.7881ZM5.4531 4.72144C5.59532 4.1881 5.80866 3.67255 6.0931 3.17477C6.27088 2.85477 6.46644 2.55255 6.67977 2.2681C5.39977 2.76588 4.36866 3.58366 3.58644 4.72144H5.4531ZM4.86644 8.24144C4.90199 7.35255 5.00866 6.51699 5.18644 5.73477H2.99977C2.64421 6.51699 2.43088 7.35255 2.35977 8.24144H4.86644ZM6.19977 5.73477C5.98644 6.55255 5.87977 7.3881 5.87977 8.24144H8.86644V5.73477H6.19977ZM9.82644 5.73477V8.24144H12.8131C12.8131 7.3881 12.7064 6.55255 12.4931 5.73477H9.82644ZM5.87977 9.20144C5.87977 10.0548 5.98644 10.8903 6.19977 11.7081H8.86644V9.20144H5.87977ZM9.82644 9.20144V11.7081H12.4931C12.7064 10.9259 12.8131 10.0903 12.8131 9.20144H9.82644ZM6.46644 12.7214C6.60866 13.1125 6.76866 13.4681 6.94644 13.7881C7.51532 14.8192 8.15532 15.4414 8.86644 15.6548V12.7214H6.46644ZM6.67977 15.1748C6.46644 14.8903 6.27088 14.5881 6.0931 14.2681C5.80866 13.7703 5.59532 13.2548 5.4531 12.7214H3.58644C4.36866 13.8592 5.39977 14.677 6.67977 15.1748ZM5.18644 11.7081C5.00866 10.8903 4.90199 10.0548 4.86644 9.20144H2.35977C2.43088 10.0903 2.64421 10.9259 2.99977 11.7081H5.18644ZM12.0131 15.1748C13.2931 14.677 14.3242 13.8592 15.1064 12.7214H13.2398C13.0975 13.2548 12.8842 13.7703 12.5998 14.2681C12.422 14.5881 12.2264 14.8903 12.0131 15.1748ZM9.82644 12.7214V15.6548C10.5375 15.4414 11.1775 14.8192 11.7464 13.7881C11.9242 13.4681 12.0842 13.1125 12.2264 12.7214H9.82644ZM13.5064 11.7081H15.6931C16.0487 10.9259 16.262 10.0903 16.3331 9.20144H13.8264C13.7909 10.0548 13.6842 10.8903 13.5064 11.7081ZM16.3331 8.24144C16.262 7.35255 16.0487 6.51699 15.6931 5.73477H13.5064C13.6842 6.51699 13.7909 7.35255 13.8264 8.24144H16.3331ZM12.5998 3.17477C12.8487 3.63699 13.062 4.15255 13.2398 4.72144H15.1064C14.3242 3.58366 13.2931 2.76588 12.0131 2.2681C12.2264 2.55255 12.422 2.85477 12.5998 3.17477ZM12.2264 4.72144C12.0842 4.36588 11.9242 4.01032 11.7464 3.65477C11.1775 2.62366 10.5375 2.00144 9.82644 1.7881V4.72144H12.2264Z" fill="white"/>
</g>
<defs>
<clipPath id="clip0_2002_408">
<rect width="17" height="17" fill="white" transform="matrix(1 0 0 -1 0.673218 17.144)"/>
</clipPath>
</defs>
</svg>
